<svg xmlns="http://www.w3.org/2000/svg" width="61" height="60" viewBox="0 0 61 60">
  <g fill="none">
    <rect width="60" height="60"/>
    <polygon fill="#C2E2FF" points="46.51 50 5.95 50 7.37 10 47.92 10"/>
    <path fill="#116DFF" d="M44.3645079,48.238644 C45.479294,47.1431467 47.2428399,47.1300435 48.303498,48.209377 C49.3641561,49.2887105 49.3202767,51.0517592 48.2054907,52.1472564 C47.0907046,53.2427537 45.3271586,53.2558569 44.2665005,52.1765234 C43.2058424,51.0971899 43.2497218,49.3341412 44.3645079,48.238644 Z M5.95,47.22 C7.4853516,47.22 8.73,48.4646484 8.73,50 C8.73,51.5353516 7.4853516,52.78 5.95,52.78 C4.4146484,52.78 3.17,51.5353516 3.17,50 C3.17,48.4646484 4.4146484,47.22 5.95,47.22 Z M46.4947282,7.69041061 C47.6095143,6.59491338 49.3730602,6.5818101 50.4337183,7.66114363 C51.4943764,8.74047715 51.450497,10.5035258 50.3357109,11.5990231 C49.2209248,12.6945203 47.4573789,12.7076236 46.3967208,11.6282901 C45.3360627,10.5489565 45.3799421,8.78590785 46.4947282,7.69041061 Z M5.45292973,7.68572682 C6.56771582,6.59022958 8.33126179,6.57712631 9.39191989,7.65645983 C10.452578,8.73579336 10.4086986,10.498842 9.2939125,11.5943393 C8.17912641,12.6898365 6.41558045,12.7029398 5.35492235,11.6236063 C4.29426424,10.5442727 4.33814365,8.78122406 5.45292973,7.68572682 Z"/>
    <path fill="#FFF" d="M34.71,18.43 C38.7333864,22.9098804 38.5497991,29.7542877 34.2920434,34.0120434 C30.0342877,38.2697991 23.1898804,38.4533864 18.71,34.43 L18.57,34.29 L26.71,26.43 L34.71,18.43 Z M21.94,16.23 C24.6130582,16.23 26.78,18.3969418 26.78,21.07 C26.78,23.7430582 24.6130582,25.91 21.94,25.91 C19.2669418,25.91 17.1,23.7430582 17.1,21.07 C17.1,18.3969418 19.2669418,16.23 21.94,16.23 Z"/>
    <rect width="17" height="1" x="18" y="43" fill="#192C55"/>
    <path fill="#28BF9A" d="M50.52,27.37 L54.32,31.15 L52.49,33 L49.93,35.56 L47.14,38.34 C46.349225,39.1246787 45.1577055,39.3431239 44.14,38.89 L44.1066273,38.873 L42.85,40.13 C42.4625031,40.3331637 41.9879248,40.2608309 41.678547,39.951453 C41.3691691,39.6420752 41.2968363,39.1674969 41.5,38.78 L42.7756273,37.513 L42.7188862,37.3685596 C42.375867,36.3929027 42.6111564,35.299284 43.34,34.55 L48.69,29.21 L50.52,27.37 Z"/>
    <path fill="#192C55" d="M49.3824805,26.2125418 L55.4282435,32.2583048 L53.5897659,34.0967824 L47.5440029,28.0510194 L49.3824805,26.2125418 Z M57.9806454,23.3894606 L58.1150818,23.5143596 C59.1770227,24.560555 59.1990972,26.2665955 58.1645238,27.3398628 L54.3602893,31.1440973 L50.5065573,27.2903654 L54.3107918,23.4861309 C55.3312893,22.5024685 56.9258009,22.4730215 57.9806454,23.3894606 Z"/>
  </g>
</svg>
