<svg xmlns="http://www.w3.org/2000/svg" width="60" height="60" viewBox="0 0 60 60">
  <g fill="none">
    <rect width="60" height="60"/>
    <path fill="#C2E2FF" d="M52.78,26 L51.88,55 L39.53,55 L40.18,34.66 C44.7366104,32.33 48.9719103,29.4190717 52.78,26 Z M37.32,36 L36.68,55 L24.33,55 L24.84,40 C27.5540971,39.4472686 30.2270476,38.708866 32.84,37.79 C34.4066667,37.2633333 35.9,36.6666667 37.32,36 Z M21.89,40.55 L21.48,55 L9.13,55 L9.52,41.1 C13.6512721,41.3430475 17.7966002,41.1587362 21.89,40.55 Z"/>
    <path fill="#192C55" d="M55.63,15.68 L55.63,22.59 L54.63,22.59 L54.6311409,17.3278842 C50.0366329,21.5830063 44.9505947,25.276676 39.48,28.33 C30.35,33.46 21.51,36.05 13.15,36.05 C11.89,36.05 10.64,35.99 9.4,35.88 C8.69,35.81 7.98,35.72 7.26,35.61 L7.41,34.61 C8.11,34.72 8.8,34.8 9.49,34.87 C18.75,35.75 28.67,33.25 38.99,27.45 C44.3582562,24.4622006 49.3506434,20.8469921 53.8625219,16.6814287 L48.72,16.68 L48.72,15.68 L55.63,15.68 Z"/>
    <path fill="#116DFF" d="M28.78,3.65 L28.78,3.65 C22.5985625,3.69295585 17.5407442,8.58350082 17.29,14.76 L17.29,14.76 C17.1639638,17.6738304 18.2384314,20.511855 20.2626011,22.611624 C22.2867708,24.7113929 25.083508,25.8891558 28,25.87 L28,25.87 C34.1832449,25.8272831 39.2440623,20.9380934 39.5,14.76 L39.5,14.76 C39.629056,11.8436324 38.5542092,9.00233439 36.5272089,6.90159054 C34.5002085,4.8008467 31.6991163,3.62519685 28.78,3.65 Z"/>
    <path fill="#FFF" d="M28.53,13.8 L28.53,16.13 L32.37,16.13 C31.981829,17.908492 30.3456118,19.1313939 28.53,19 C26.3577707,18.7641815 24.7119253,16.9299921 24.7119253,14.745 C24.7119253,12.5600079 26.3577707,10.7258185 28.53,10.49 C29.5327614,10.4729961 30.5021866,10.8499948 31.23,11.54 L33.06,9.77 C31.8370799,8.61422546 30.2125358,7.97946981 28.53,8 C26.0510611,7.90467383 23.7185199,9.17282092 22.4507119,11.3051642 C21.1829038,13.4375075 21.1829038,16.0924925 22.4507119,18.2248358 C23.7185199,20.3571791 26.0510611,21.6253262 28.53,21.53 C30.292514,21.5983683 32.0016342,20.9176198 33.2344841,19.6561876 C34.467334,18.3947555 35.1087388,16.6704845 35,14.91 C35.0030678,14.5305178 34.9661982,14.151766 34.89,13.78 L28.53,13.8 Z"/>
    <circle cx="9.13" cy="35.55" r="2.35" fill="#28BF9A"/>
  </g>
</svg>
